<?xml version="1.0" encoding="UTF-8" standalone="no"?>
<!-- Created with Inkscape (http://www.inkscape.org/) -->

<svg
   xmlns:dc="http://purl.org/dc/elements/1.1/"
   xmlns:cc="http://creativecommons.org/ns#"
   xmlns:rdf="http://www.w3.org/1999/02/22-rdf-syntax-ns#"
   xmlns:svg="http://www.w3.org/2000/svg"
   xmlns="http://www.w3.org/2000/svg"
   xmlns:sodipodi="http://sodipodi.sourceforge.net/DTD/sodipodi-0.dtd"
   xmlns:inkscape="http://www.inkscape.org/namespaces/inkscape"
   width="210mm"
   height="297mm"
   id="svg2"
   version="1.1"
   inkscape:version="0.48.5 r10040"
   sodipodi:docname="Nouveau document 1">
  <defs
     id="defs4" />
  <sodipodi:namedview
     id="base"
     pagecolor="#ffffff"
     bordercolor="#666666"
     borderopacity="1.0"
     inkscape:pageopacity="0.0"
     inkscape:pageshadow="2"
     inkscape:zoom="0.7"
     inkscape:cx="483.58425"
     inkscape:cy="528.39546"
     inkscape:document-units="px"
     inkscape:current-layer="layer1"
     showgrid="false"
     inkscape:window-width="1680"
     inkscape:window-height="988"
     inkscape:window-x="-8"
     inkscape:window-y="-8"
     inkscape:window-maximized="1" />
  <metadata
     id="metadata7">
    <rdf:RDF>
      <cc:Work
         rdf:about="">
        <dc:format>image/svg+xml</dc:format>
        <dc:type
           rdf:resource="http://purl.org/dc/dcmitype/StillImage" />
        <dc:title></dc:title>
      </cc:Work>
    </rdf:RDF>
  </metadata>
  <g
     inkscape:label="Calque 1"
     inkscape:groupmode="layer"
     id="layer1">
    <rect
       style="fill:#53676c;fill-opacity:1;stroke:none"
       id="rect3020"
       width="740.2757"
       height="688.90961"
       x="2.8571446"
       y="154.88113"
       ry="40.790703" />
    <path
       style="fill:#374548;stroke:none"
       d="m 510.47475,259.87942 231.14732,179.02586 0.75537,367.11631 c 0,0 0.75539,29.45995 -33.23686,37.01379 l -339.92251,0 -149.5659,-138.99055 z"
       id="path3090"
       inkscape:connector-curvature="0" />
    <rect
       style="fill:#aa0044;fill-opacity:1;stroke:none"
       id="rect3088"
       width="289.31183"
       height="161.65204"
       x="225.69524"
       y="541.63739"
       ry="40.790703" />
    <g
       id="g3064"
       transform="matrix(7.7720555,0,0,7.7720555,217.91478,259.91719)"
       style="fill:#d40055;">
      <g
         id="Shape_360_1_"
         style="fill:#d40055">
	<g
   id="g3024"
   style="fill:#d40055">
		<path
   id="path3026"
   d="M 37.05,0 H 1.95 C 0.873,0 0,0.874 0,1.95 V 56.551 C 0,57.626 0.873,58.5 1.95,58.5 h 35.1 C 38.127,58.5 39,57.626 39,56.552 V 1.95 C 39,0.874 38.127,0 37.05,0 z M 3.9,5.849 C 3.9,4.772 4.773,3.9 5.85,3.9 h 27.3 c 1.077,0 1.95,0.872 1.95,1.948 v 27.3 c 0,1.076 -0.873,1.95 -1.95,1.95 H 5.85 c -1.077,0 -1.95,-0.874 -1.95,-1.95 V 5.849 z m 10.725,39.976 h -3.9 v 3.899 c 0,0.539 -0.437,0.977 -0.975,0.977 -0.538,0 -0.975,-0.438 -0.975,-0.977 v -3.899 h -3.9 C 4.336,45.825 3.9,45.389 3.9,44.85 c 0,-0.539 0.437,-0.975 0.975,-0.975 h 3.9 v -3.9 C 8.775,39.438 9.212,39 9.75,39 c 0.539,0 0.975,0.438 0.975,0.975 v 3.9 h 3.9 c 0.539,0 0.975,0.436 0.975,0.975 0,0.539 -0.436,0.975 -0.975,0.975 z m 8.775,5.849 c -1.615,0 -2.925,-1.31 -2.925,-2.923 0,-1.617 1.31,-2.925 2.925,-2.925 1.616,0 2.925,1.308 2.925,2.925 0,1.613 -1.309,2.923 -2.925,2.923 z m 0,-7.799 c -1.615,0 -2.925,-1.31 -2.925,-2.925 0,-1.615 1.31,-2.925 2.925,-2.925 1.616,0 2.925,1.31 2.925,2.925 0,1.615 -1.309,2.925 -2.925,2.925 z m 8.775,9.751 c -1.615,0 -2.925,-1.312 -2.925,-2.925 0,-1.615 1.31,-2.925 2.925,-2.925 1.616,0 2.925,1.31 2.925,2.925 0,1.613 -1.309,2.925 -2.925,2.925 z m 0,-7.801 c -1.615,0 -2.925,-1.31 -2.925,-2.927 0,-1.614 1.31,-2.924 2.925,-2.924 1.616,0 2.925,1.31 2.925,2.924 0,1.617 -1.309,2.927 -2.925,2.927 z M 23.4,39.975 c -0.538,0 -0.975,0.436 -0.975,0.975 0,0.539 0.437,0.975 0.975,0.975 0.538,0 0.975,-0.436 0.975,-0.975 0,-0.539 -0.437,-0.975 -0.975,-0.975 z M 6.825,33.149 h 25.35 c 0.538,0 0.975,-0.436 0.975,-0.975 V 6.826 c 0,-0.539 -0.437,-0.977 -0.975,-0.977 H 6.825 C 6.287,5.849 5.85,6.287 5.85,6.826 v 25.349 c 0,0.538 0.437,0.974 0.975,0.974 z m 25.35,16.575 c -0.538,0 -0.975,0.438 -0.975,0.977 0,0.537 0.437,0.973 0.975,0.973 0.538,0 0.975,-0.436 0.975,-0.973 0,-0.539 -0.437,-0.977 -0.975,-0.977 z M 23.4,47.775 c -0.538,0 -0.975,0.436 -0.975,0.975 0,0.539 0.437,0.973 0.975,0.973 0.538,0 0.975,-0.434 0.975,-0.973 0,-0.539 -0.437,-0.975 -0.975,-0.975 z m 8.775,-5.85 c -0.538,0 -0.975,0.436 -0.975,0.973 0,0.539 0.437,0.977 0.975,0.977 0.538,0 0.975,-0.438 0.975,-0.977 0,-0.537 -0.437,-0.973 -0.975,-0.973 z"
   style="fill:#d40055;fill-rule:evenodd"
   inkscape:connector-curvature="0" />

	</g>

</g>
      <g
         id="g3028"
         style="fill:#d40055">
</g>
      <g
         id="g3030"
         style="fill:#d40055">
</g>
      <g
         id="g3032"
         style="fill:#d40055">
</g>
      <g
         id="g3034"
         style="fill:#d40055">
</g>
      <g
         id="g3036"
         style="fill:#d40055">
</g>
      <g
         id="g3038"
         style="fill:#d40055">
</g>
      <g
         id="g3040"
         style="fill:#d40055">
</g>
      <g
         id="g3042"
         style="fill:#d40055">
</g>
      <g
         id="g3044"
         style="fill:#d40055">
</g>
      <g
         id="g3046"
         style="fill:#d40055">
</g>
      <g
         id="g3048"
         style="fill:#d40055">
</g>
      <g
         id="g3050"
         style="fill:#d40055">
</g>
      <g
         id="g3052"
         style="fill:#d40055">
</g>
      <g
         id="g3054"
         style="fill:#d40055">
</g>
      <g
         id="g3056"
         style="fill:#d40055">
</g>
    </g>
    <rect
       style="fill:#87decd;fill-opacity:1;stroke:none"
       id="rect3084"
       width="246.25496"
       height="246.25497"
       x="247.60135"
       y="287.82861"
       ry="0"
       rx="0" />
    <path
       style="fill:#ffffff;stroke:none;"
       d="M 247.60135,534.08358 493.10094,287.07322 247.60135,288.58399 z"
       id="path3086"
       inkscape:connector-curvature="0" />
    <text
       xml:space="preserve"
       style="font-size:96.0191803px;font-style:normal;font-weight:normal;line-height:125%;letter-spacing:0px;word-spacing:0px;fill:#d5f6ff;fill-opacity:1;stroke:none;font-family:'Lobster 1.4';-inkscape-font-specification:'Lobster 1.4'"
       x="56.625313"
       y="804.04651"
       id="text3092"
       sodipodi:linespacing="125%"><tspan
         sodipodi:role="line"
         id="tspan3094"
         x="56.625313"
         y="804.04651">GamingWebsites</tspan></text>
  </g>
</svg>
