<?xml version="1.0" encoding="UTF-8" standalone="no"?>
<!-- Created with Inkscape (http://www.inkscape.org/) -->

<svg
   xmlns:dc="http://purl.org/dc/elements/1.1/"
   xmlns:cc="http://creativecommons.org/ns#"
   xmlns:rdf="http://www.w3.org/1999/02/22-rdf-syntax-ns#"
   xmlns:svg="http://www.w3.org/2000/svg"
   xmlns="http://www.w3.org/2000/svg"
   xmlns:sodipodi="http://sodipodi.sourceforge.net/DTD/sodipodi-0.dtd"
   xmlns:inkscape="http://www.inkscape.org/namespaces/inkscape"
   width="300"
   height="300"
   id="svg3024"
   version="1.1"
   inkscape:version="0.48.5 r10040"
   sodipodi:docname="GWLarge.svg">
  <defs
     id="defs3026" />
  <sodipodi:namedview
     id="base"
     pagecolor="#ffffff"
     bordercolor="#666666"
     borderopacity="1.0"
     inkscape:pageopacity="0.0"
     inkscape:pageshadow="2"
     inkscape:zoom="2.75"
     inkscape:cx="67.090909"
     inkscape:cy="154.39273"
     inkscape:current-layer="layer1"
     showgrid="true"
     inkscape:document-units="px"
     inkscape:grid-bbox="true"
     inkscape:window-width="1680"
     inkscape:window-height="988"
     inkscape:window-x="-8"
     inkscape:window-y="-8"
     inkscape:window-maximized="1" />
  <metadata
     id="metadata3029">
    <rdf:RDF>
      <cc:Work
         rdf:about="">
        <dc:format>image/svg+xml</dc:format>
        <dc:type
           rdf:resource="http://purl.org/dc/dcmitype/StillImage" />
        <dc:title />
      </cc:Work>
    </rdf:RDF>
  </metadata>
  <g
     id="layer1"
     inkscape:label="Layer 1"
     inkscape:groupmode="layer"
     transform="translate(0,236)">
    <rect
       style="fill:#53676c;fill-opacity:1;stroke:none"
       id="rect3020"
       width="289.23502"
       height="261.90479"
       x="5.8645535"
       y="-231.57539"
       ry="15.50752" />
    <path
       style="fill:#374548;stroke:none"
       d="m 204.19711,-191.65787 90.31217,68.06078 0.29513,139.567655 c 0,0 0.29513,11.199866 -12.98606,14.071627 l -132.81198,0 -58.437283,-52.840423 z"
       id="path3090"
       inkscape:connector-curvature="0" />
    <rect
       style="fill:#aa0044;fill-opacity:1;stroke:none"
       id="rect3088"
       width="113.03777"
       height="61.455723"
       x="92.930191"
       y="-84.541161"
       ry="15.50752" />
    <g
       id="g3064"
       transform="matrix(3.0366395,0,0,2.954725,89.890266,-191.64353)"
       style="fill:#d40055">
      <g
         id="Shape_360_1_"
         style="fill:#d40055">
        <g
           id="g3024"
           style="fill:#d40055">
          <path
             id="path3026"
             d="M 37.05,0 H 1.95 C 0.873,0 0,0.874 0,1.95 V 56.551 C 0,57.626 0.873,58.5 1.95,58.5 h 35.1 C 38.127,58.5 39,57.626 39,56.552 V 1.95 C 39,0.874 38.127,0 37.05,0 z M 3.9,5.849 C 3.9,4.772 4.773,3.9 5.85,3.9 h 27.3 c 1.077,0 1.95,0.872 1.95,1.948 v 27.3 c 0,1.076 -0.873,1.95 -1.95,1.95 H 5.85 c -1.077,0 -1.95,-0.874 -1.95,-1.95 V 5.849 z m 10.725,39.976 h -3.9 v 3.899 c 0,0.539 -0.437,0.977 -0.975,0.977 -0.538,0 -0.975,-0.438 -0.975,-0.977 v -3.899 h -3.9 C 4.336,45.825 3.9,45.389 3.9,44.85 c 0,-0.539 0.437,-0.975 0.975,-0.975 h 3.9 v -3.9 C 8.775,39.438 9.212,39 9.75,39 c 0.539,0 0.975,0.438 0.975,0.975 v 3.9 h 3.9 c 0.539,0 0.975,0.436 0.975,0.975 0,0.539 -0.436,0.975 -0.975,0.975 z m 8.775,5.849 c -1.615,0 -2.925,-1.31 -2.925,-2.923 0,-1.617 1.31,-2.925 2.925,-2.925 1.616,0 2.925,1.308 2.925,2.925 0,1.613 -1.309,2.923 -2.925,2.923 z m 0,-7.799 c -1.615,0 -2.925,-1.31 -2.925,-2.925 0,-1.615 1.31,-2.925 2.925,-2.925 1.616,0 2.925,1.31 2.925,2.925 0,1.615 -1.309,2.925 -2.925,2.925 z m 8.775,9.751 c -1.615,0 -2.925,-1.312 -2.925,-2.925 0,-1.615 1.31,-2.925 2.925,-2.925 1.616,0 2.925,1.31 2.925,2.925 0,1.613 -1.309,2.925 -2.925,2.925 z m 0,-7.801 c -1.615,0 -2.925,-1.31 -2.925,-2.927 0,-1.614 1.31,-2.924 2.925,-2.924 1.616,0 2.925,1.31 2.925,2.924 0,1.617 -1.309,2.927 -2.925,2.927 z M 23.4,39.975 c -0.538,0 -0.975,0.436 -0.975,0.975 0,0.539 0.437,0.975 0.975,0.975 0.538,0 0.975,-0.436 0.975,-0.975 0,-0.539 -0.437,-0.975 -0.975,-0.975 z M 6.825,33.149 h 25.35 c 0.538,0 0.975,-0.436 0.975,-0.975 V 6.826 c 0,-0.539 -0.437,-0.977 -0.975,-0.977 H 6.825 C 6.287,5.849 5.85,6.287 5.85,6.826 v 25.349 c 0,0.538 0.437,0.974 0.975,0.974 z m 25.35,16.575 c -0.538,0 -0.975,0.438 -0.975,0.977 0,0.537 0.437,0.973 0.975,0.973 0.538,0 0.975,-0.436 0.975,-0.973 0,-0.539 -0.437,-0.977 -0.975,-0.977 z M 23.4,47.775 c -0.538,0 -0.975,0.436 -0.975,0.975 0,0.539 0.437,0.973 0.975,0.973 0.538,0 0.975,-0.434 0.975,-0.973 0,-0.539 -0.437,-0.975 -0.975,-0.975 z m 8.775,-5.85 c -0.538,0 -0.975,0.436 -0.975,0.973 0,0.539 0.437,0.977 0.975,0.977 0.538,0 0.975,-0.438 0.975,-0.977 0,-0.537 -0.437,-0.973 -0.975,-0.973 z"
             style="fill:#d40055;fill-rule:evenodd"
             inkscape:connector-curvature="0" />
        </g>
      </g>
      <g
         id="g3028"
         style="fill:#d40055" />
      <g
         id="g3030"
         style="fill:#d40055" />
      <g
         id="g3032"
         style="fill:#d40055" />
      <g
         id="g3034"
         style="fill:#d40055" />
      <g
         id="g3036"
         style="fill:#d40055" />
      <g
         id="g3038"
         style="fill:#d40055" />
      <g
         id="g3040"
         style="fill:#d40055" />
      <g
         id="g3042"
         style="fill:#d40055" />
      <g
         id="g3044"
         style="fill:#d40055" />
      <g
         id="g3046"
         style="fill:#d40055" />
      <g
         id="g3048"
         style="fill:#d40055" />
      <g
         id="g3050"
         style="fill:#d40055" />
      <g
         id="g3052"
         style="fill:#d40055" />
      <g
         id="g3054"
         style="fill:#d40055" />
      <g
         id="g3056"
         style="fill:#d40055" />
    </g>
    <rect
       style="fill:#87decd;fill-opacity:1;stroke:none"
       id="rect3084"
       width="96.214897"
       height="93.619476"
       x="101.48919"
       y="-181.03238"
       ry="0"
       rx="0" />
    <path
       style="fill:#ffffff;stroke:none"
       d="m 101.48919,-87.412888 95.91977,-93.906642 -95.91977,0.57436 z"
       id="path3086"
       inkscape:connector-curvature="0" />
    <text
       xml:space="preserve"
       style="font-size:37.00643539px;font-style:normal;font-weight:normal;line-height:125%;letter-spacing:0px;word-spacing:0px;fill:#d5f6ff;fill-opacity:1;stroke:none;font-family:'Lobster 1.4';-inkscape-font-specification:'Lobster 1.4'"
       x="26.507526"
       y="15.429178"
       id="text3092"
       sodipodi:linespacing="125%"
       transform="scale(1.0137669,0.98642008)"><tspan
         sodipodi:role="line"
         id="tspan3094"
         x="26.507526"
         y="15.429178">GamingWebsites</tspan></text>
  </g>
</svg>
